<svg width="41" height="43" viewBox="0 0 41 43" fill="none" xmlns="http://www.w3.org/2000/svg">
<path d="M17.8599 0C15.2077 0 12.6642 1.05357 10.7888 2.92893C8.91343 4.8043 7.85986 7.34784 7.85986 10C7.85986 12.6522 8.91343 15.1957 10.7888 17.0711C12.6642 18.9464 15.2077 20 17.8599 20C20.512 20 23.0556 18.9464 24.9309 17.0711C26.8063 15.1957 27.8599 12.6522 27.8599 10C27.8599 7.34784 26.8063 4.8043 24.9309 2.92893C23.0556 1.05357 20.512 0 17.8599 0ZM5.38236 22.5C4.72386 22.497 4.07126 22.6242 3.46204 22.8741C2.85281 23.1241 2.29895 23.4919 1.83228 23.9565C1.3656 24.4211 0.995286 24.9733 0.742607 25.5814C0.489927 26.1895 0.359857 26.8415 0.359863 27.5C0.359863 31.7275 2.44236 34.915 5.69736 36.9925C8.90236 39.035 13.2224 40 17.8599 40C18.7532 40 19.6332 39.9642 20.4999 39.8925C20.3 39.0265 20.3129 38.125 20.5375 37.2651C20.7622 36.4052 21.1919 35.6125 21.7899 34.955L23.1524 33.4375C23.7724 32.7502 24.5654 32.2417 25.4488 31.9651C26.3322 31.6885 27.2736 31.654 28.1749 31.865L30.1374 32.33C31.0824 31.55 31.6549 30.63 31.9174 29.5275L30.6224 28.2625C29.947 27.6022 29.4792 26.7592 29.2762 25.8368C29.0733 24.9143 29.144 23.9527 29.4799 23.07L29.6949 22.5H5.38236ZM31.8199 23.955L32.5274 22.08C33.1724 20.3775 35.1824 19.5375 36.8774 20.26L37.8474 20.675C39.0299 21.18 40.0074 22.095 40.2149 23.325C41.3574 30.1375 35.4449 39.8275 28.6399 42.3C27.4099 42.745 26.0824 42.4 25.0274 41.685L24.1624 41.0975C23.8072 40.8583 23.5082 40.5449 23.286 40.1789C23.0637 39.8129 22.9235 39.4031 22.875 38.9777C22.8265 38.5522 22.8709 38.1213 23.0051 37.7147C23.1393 37.3081 23.3602 36.9355 23.6524 36.6225L25.0149 35.105C25.3349 34.7526 25.7432 34.4919 26.1976 34.3499C26.652 34.208 27.1361 34.1899 27.5999 34.2975L30.6624 35.0225C33.0907 33.5058 34.3924 31.3725 34.5674 28.6225L32.3724 26.475C32.0445 26.1546 31.8176 25.7453 31.7194 25.2976C31.6212 24.8498 31.6561 24.3832 31.8199 23.955Z" fill="black"/>
</svg>
