<svg width="50" height="36" viewBox="0 0 50 36" fill="none" xmlns="http://www.w3.org/2000/svg">
<path d="M1.3026 20.5199C0.960931 20.5199 0.675098 20.3999 0.445098 20.1599C0.215098 19.9199 0.100098 19.6224 0.100098 19.2674C0.100098 18.9124 0.220098 18.6157 0.460098 18.3774C0.700098 18.1391 0.996764 18.0199 1.3501 18.0199H10.0501C10.4051 18.0199 10.7026 18.1399 10.9426 18.3799C11.1826 18.6199 11.3026 18.9174 11.3026 19.2724C11.3026 19.6274 11.1826 19.9241 10.9426 20.1624C10.7026 20.4007 10.4059 20.5199 10.0526 20.5199H1.3026ZM14.3351 35.5249C12.6018 35.5249 11.1259 34.9166 9.9076 33.6999C8.68926 32.4882 8.0801 31.0132 8.0801 29.2749H4.6201C4.06176 29.2749 3.61593 29.0666 3.2826 28.6499C2.94926 28.2332 2.83843 27.7574 2.9501 27.2224L3.7526 24.2699H9.9901C11.3868 24.2699 12.5676 23.7866 13.5326 22.8199C14.4976 21.8532 14.9801 20.6699 14.9801 19.2699C14.9801 18.5032 14.8134 17.7949 14.4801 17.1449C14.1468 16.4949 13.6834 15.9566 13.0901 15.5299H17.6276C19.0276 15.5299 20.2109 15.0466 21.1776 14.0799C22.1443 13.1132 22.6276 11.9307 22.6276 10.5324C22.6276 9.13407 22.1443 7.95073 21.1776 6.9824C20.2109 6.01407 19.0276 5.5299 17.6276 5.5299H8.8976L9.6576 2.7799C9.81093 2.1249 10.1359 1.58574 10.6326 1.1624C11.1243 0.737403 11.7184 0.524902 12.4151 0.524902H37.5501C38.1901 0.524902 38.7126 0.781569 39.1176 1.2949C39.5209 1.80824 39.6501 2.3799 39.5051 3.0099L38.0751 9.2749H41.2526C41.8926 9.2749 42.4984 9.41823 43.0701 9.7049C43.6434 9.9899 44.1151 10.3849 44.4851 10.8899L48.9776 16.8849C49.3409 17.3716 49.5768 17.8791 49.6851 18.4074C49.7951 18.9341 49.8034 19.4874 49.7101 20.0674L48.2151 27.6599C48.1218 28.1466 47.8851 28.5374 47.5051 28.8324C47.1251 29.1274 46.6934 29.2749 46.2101 29.2749H45.0026C45.0026 31.0066 44.3959 32.4816 43.1826 33.6999C41.9693 34.9182 40.4943 35.5266 38.7576 35.5249C37.0209 35.5232 35.5451 34.9149 34.3301 33.6999C33.1134 32.4866 32.5051 31.0116 32.5051 29.2749H20.5801C20.5801 31.0066 19.9734 32.4816 18.7601 33.6999C17.5468 34.9182 16.0718 35.5266 14.3351 35.5249ZM6.3051 11.7799C5.9501 11.7799 5.6526 11.6599 5.4126 11.4199C5.1726 11.1799 5.0526 10.8824 5.0526 10.5274C5.0526 10.1724 5.1726 9.87574 5.4126 9.6374C5.6526 9.39907 5.94926 9.2799 6.3026 9.2799H17.5526C17.9076 9.2799 18.2051 9.3999 18.4451 9.6399C18.6834 9.8799 18.8026 10.1774 18.8026 10.5324C18.8026 10.8874 18.6834 11.1841 18.4451 11.4224C18.2068 11.6607 17.9093 11.7799 17.5526 11.7799H6.3051ZM14.3301 33.0249C15.3584 33.0249 16.2409 32.6574 16.9776 31.9224C17.7126 31.1857 18.0801 30.3032 18.0801 29.2749C18.0801 28.2466 17.7126 27.3641 16.9776 26.6274C16.2426 25.8907 15.3601 25.5232 14.3301 25.5249C13.3001 25.5266 12.4176 25.8941 11.6826 26.6274C10.9476 27.3641 10.5801 28.2466 10.5801 29.2749C10.5801 30.3032 10.9476 31.1857 11.6826 31.9224C12.4193 32.6574 13.3018 33.0249 14.3301 33.0249ZM38.7551 33.0249C39.7834 33.0249 40.6651 32.6574 41.4001 31.9224C42.1351 31.1857 42.5026 30.3032 42.5026 29.2749C42.5026 28.2466 42.1351 27.3641 41.4001 26.6274C40.6651 25.8907 39.7826 25.5232 38.7526 25.5249C37.7226 25.5266 36.8409 25.8941 36.1076 26.6274C35.3709 27.3641 35.0026 28.2466 35.0026 29.2749C35.0026 30.3032 35.3701 31.1857 36.1051 31.9224C36.8418 32.6574 37.7251 33.0249 38.7551 33.0249ZM35.2951 21.1499H46.9276L47.3676 18.9249L42.0226 11.7749H37.4776L35.2951 21.1499Z" fill="black"/>
</svg>
