<svg width="45" height="42" viewBox="0 0 45 42" fill="none" xmlns="http://www.w3.org/2000/svg">
<path d="M35.9534 1.17708C35.7631 0.891841 35.5053 0.657984 35.2029 0.496261C34.9006 0.334537 34.563 0.249949 34.2201 0.25H9.22005L8.95964 0.266666C8.61947 0.309321 8.29508 0.435265 8.01525 0.633327C7.73542 0.831389 7.50879 1.09545 7.35547 1.40208L1.10547 13.9021L0.997136 14.1625C0.877985 14.5133 0.854555 14.8896 0.929261 15.2525C1.00397 15.6154 1.1741 15.9518 1.42214 16.2271L20.1346 37.025C20.4215 37.363 20.8105 37.5985 21.243 37.6958L21.4763 37.7375C21.8209 37.777 22.1699 37.7308 22.4923 37.6028C22.8147 37.4749 23.1005 37.2692 23.3242 37.0042L23.8659 36.4C23.8253 36.0703 23.8044 35.7385 23.8034 35.4063V35.1917C23.8028 34.4328 23.952 33.6812 24.2423 32.9801C24.5326 32.2789 24.9583 31.6419 25.4951 31.1054C26.0319 30.569 26.6692 30.1437 27.3706 29.854C28.072 29.5642 28.8237 29.4156 29.5826 29.4167H30.1534L30.1576 29.4125C28.8136 28.0968 28.03 26.3127 27.9705 24.4329C27.9109 22.553 28.5801 20.7229 29.8381 19.3248C31.0961 17.9267 32.8456 17.0688 34.7213 16.9302C36.5969 16.7916 38.4536 17.3832 39.9034 18.5813L42.0201 16.2271L42.1951 16.0042C42.4034 15.6976 42.5262 15.3409 42.5507 14.971C42.5753 14.6012 42.5007 14.2314 42.3346 13.9L36.0846 1.4L35.9534 1.17708ZM16.3513 16.9167H27.0867L21.7201 30.1292L16.3513 16.9167ZM7.64922 16.9167H11.8534L15.3117 25.4313L7.64922 16.9167ZM10.5076 4.41667H14.6826L11.9742 12.75H6.34089L10.5076 4.41667ZM19.0659 4.41667H24.3721L27.0784 12.75H16.3596L19.0659 4.41667ZM28.7555 4.41667H32.9305L37.0971 12.75H31.4638L28.7555 4.41667ZM40.4701 24.2083C40.4701 25.5897 39.9213 26.9144 38.9446 27.8912C37.9678 28.8679 36.6431 29.4167 35.2617 29.4167C33.8804 29.4167 32.5556 28.8679 31.5789 27.8912C30.6021 26.9144 30.0534 25.5897 30.0534 24.2083C30.0534 22.827 30.6021 21.5022 31.5789 20.5255C32.5556 19.5487 33.8804 19 35.2617 19C36.6431 19 37.9678 19.5487 38.9446 20.5255C39.9213 21.5022 40.4701 22.827 40.4701 24.2083ZM44.6367 35.4063C44.6367 38.6479 41.9576 41.9167 35.2617 41.9167C28.5659 41.9167 25.8867 38.6604 25.8867 35.4063V35.1917C25.8867 33.15 27.5409 31.5 29.5805 31.5H40.943C42.9846 31.5 44.6367 33.1521 44.6367 35.1917V35.4063Z" fill="black"/>
</svg>
