<svg width="48" height="48" viewBox="0 0 48 48" fill="none" xmlns="http://www.w3.org/2000/svg">
<path fill-rule="evenodd" clip-rule="evenodd" d="M22.0104 0.860497C22.2716 0.599078 22.5817 0.391697 22.9231 0.250206C23.2645 0.108715 23.6304 0.0358887 23.9999 0.0358887C24.3695 0.0358887 24.7354 0.108715 25.0768 0.250206C25.4182 0.391697 25.7283 0.599078 25.9895 0.860497L47.1375 22.0105C47.3989 22.2717 47.6062 22.5818 47.7477 22.9232C47.8892 23.2646 47.9621 23.6305 47.9621 24.0001C47.9621 24.3696 47.8892 24.7355 47.7477 25.0769C47.6062 25.4183 47.3989 25.7285 47.1375 25.9897L25.9895 47.1355C25.7283 47.3969 25.4182 47.6043 25.0768 47.7458C24.7354 47.8873 24.3695 47.9601 23.9999 47.9601C23.6304 47.9601 23.2645 47.8873 22.9231 47.7458C22.5817 47.6043 22.2716 47.3969 22.0104 47.1355L0.86245 25.9917C0.601032 25.7305 0.39365 25.4204 0.252159 25.079C0.110669 24.7376 0.0378418 24.3717 0.0378418 24.0022C0.0378418 23.6326 0.110669 23.2667 0.252159 22.9253C0.39365 22.5839 0.601032 22.2738 0.86245 22.0126L22.0104 0.860497ZM23.9999 14.1042C24.4144 14.1042 24.8118 14.2689 25.1048 14.5619C25.3978 14.8549 25.5624 15.2523 25.5624 15.6667V24.0001C25.5624 24.4145 25.3978 24.8119 25.1048 25.1049C24.8118 25.398 24.4144 25.5626 23.9999 25.5626C23.5855 25.5626 23.1881 25.398 22.8951 25.1049C22.6021 24.8119 22.4374 24.4145 22.4374 24.0001V15.6667C22.4374 15.2523 22.6021 14.8549 22.8951 14.5619C23.1881 14.2689 23.5855 14.1042 23.9999 14.1042ZM25.1833 33.3751C25.4514 33.0657 25.5874 32.6634 25.562 32.2548C25.5366 31.8462 25.3519 31.4639 25.0475 31.1901C24.7431 30.9163 24.3435 30.7729 23.9344 30.7907C23.5254 30.8086 23.1397 30.9862 22.8604 31.2855L22.8395 31.3084C22.5723 31.6177 22.4369 32.0194 22.4624 32.4273C22.4879 32.8352 22.6722 33.217 22.9758 33.4906C23.2794 33.7642 23.6782 33.908 24.0866 33.8911C24.4949 33.8742 24.8804 33.6979 25.1604 33.4001L25.1833 33.3751Z" fill="black"/>
</svg>
