<svg xmlns="http://www.w3.org/2000/svg" fill="none" viewBox="0.25 0.06 50 41">
<path d="M48.4643 3.78733H39.5357V0.525968C39.5357 0.269718 39.3348 0.0600586 39.0893 0.0600586H35.9643C35.7188 0.0600586 35.5179 0.269718 35.5179 0.525968V3.78733H27.2589V0.525968C27.2589 0.269718 27.058 0.0600586 26.8125 0.0600586H23.6875C23.442 0.0600586 23.2411 0.269718 23.2411 0.525968V3.78733H14.9821V0.525968C14.9821 0.269718 14.7812 0.0600586 14.5357 0.0600586H11.4107C11.1652 0.0600586 10.9643 0.269718 10.9643 0.525968V3.78733H2.03571C1.04799 3.78733 0.25 4.62014 0.25 5.65097V39.1964C0.25 40.2272 1.04799 41.0601 2.03571 41.0601H48.4643C49.452 41.0601 50.25 40.2272 50.25 39.1964V5.65097C50.25 4.62014 49.452 3.78733 48.4643 3.78733ZM20.3393 30.8101C20.3393 31.0663 20.1384 31.276 19.8929 31.276H9.625C9.37946 31.276 9.17857 31.0663 9.17857 30.8101V28.0146C9.17857 27.7584 9.37946 27.5487 9.625 27.5487H19.8929C20.1384 27.5487 20.3393 27.7584 20.3393 28.0146V30.8101ZM20.3393 22.8896C20.3393 23.1459 20.1384 23.3555 19.8929 23.3555H9.625C9.37946 23.3555 9.17857 23.1459 9.17857 22.8896V20.0941C9.17857 19.8379 9.37946 19.6282 9.625 19.6282H19.8929C20.1384 19.6282 20.3393 19.8379 20.3393 20.0941V22.8896ZM41.2377 17.5724L32.0301 30.8916C31.9479 31.0107 31.8398 31.1076 31.7146 31.1745C31.5895 31.2414 31.4509 31.2762 31.3103 31.2762C31.1697 31.2762 31.0311 31.2414 30.9059 31.1745C30.7807 31.1076 30.6726 31.0107 30.5904 30.8916L24.2176 21.6782C24.0056 21.3696 24.2176 20.9386 24.5804 20.9386H27.644C27.9286 20.9386 28.1964 21.0842 28.3638 21.323L31.3103 25.5802L37.0971 17.2113C37.2645 16.9667 37.5324 16.827 37.817 16.827H40.875C41.2377 16.8328 41.4498 17.2638 41.2377 17.5724Z" fill="black"/>
</svg>